# xmcd CD database file
#
# Track frame offsets:
#	150
#	44370
#	57711
#	76906
#	81808
#	97190
#	130270
#	154905
#	193652
#	210101
#
# Disc length: 3055 seconds
#
# Revision: 0
# Processed by: cddbd v1.5.2PL0 Copyright (c) Steve Scherf et al.
# Submitted via: CDex 1.70beta2
#
DISCID=840bed0a
DTITLE=Sophia Domancich et Simon Goubert - You don't know wath love is
DYEAR=2005
DGENRE=Jazz
TTITLE0=You don't know wath love is
TTITLE1=Here we are
TTITLE2=Mephisto
TTITLE3=Miles'stones
TTITLE4=Les portes en ré
TTITLE5=Seagulls of Kristiansunds
TTITLE6=Organum
TTITLE7=Lonely woman
TTITLE8=Certains soirs
TTITLE9=A propos de cette lettre
EXTD=YEAR: 2005
EXTT0=
EXTT1=
EXTT2=
EXTT3=
EXTT4=
EXTT5=
EXTT6=
EXTT7=
EXTT8=
EXTT9=
PLAYORDER=
